<svg width="922" height="707" viewBox="0 0 922 707" fill="none" xmlns="http://www.w3.org/2000/svg">
<g clip-path="url(#clip0_92_446)">
<path opacity="0.1" d="M157.374 103.963C152.441 109.952 150.541 118.373 148.416 126.29C131.31 190.093 89.1578 241.413 41.1532 278.069C20.8241 293.597 -3.92545 314.42 0.522086 342.259C2.91692 357.21 13.4236 368.216 21.2293 380.393C37.6059 405.891 42.9178 440.548 35.1121 471.072C26.235 505.801 1.4224 538.207 9.10205 573.324C13.8377 594.94 29.9173 610.323 45.3756 623.545C69.492 644.158 94.3766 663.468 120.029 681.475C137.225 693.544 155.52 705.288 175.561 706.82C193.207 708.171 210.493 701.461 227.248 694.841C241.887 689.05 256.895 683.024 268.716 671.424C276.432 663.849 282.581 654.077 291.152 647.88C311.283 633.326 337.14 642.548 360.224 648.781C414.692 663.408 472.988 658.067 524.819 633.704C604.325 596.327 664.925 517.834 742.694 475.719C776.132 457.607 812.504 446.367 843.466 423.04C860.909 409.758 875.9 393.53 887.761 375.089C911.169 338.963 923.828 292.903 920.172 247.816C916.517 202.729 896.035 159.281 863.867 133.829C829.43 106.584 785.936 101.495 746.754 85.139C706.312 68.2247 670.318 39.1694 630.263 21.0571C597.831 6.42453 562.535 -0.757101 526.966 0.0393059C491.397 0.835713 456.458 9.58995 424.713 25.6595C381.093 47.7256 336.897 99.2074 288.316 103.116C253.708 105.818 184.402 71.1608 157.374 103.963Z" fill="#023E8A"/>
<path d="M781.588 312.601C781.588 312.601 768.479 268.063 784.045 235.288C790.666 221.581 792.662 206.095 789.735 191.156C788.29 184.075 786.198 177.141 783.487 170.441" stroke="#535461" stroke-width="2" stroke-miterlimit="10"/>
<path d="M793.22 149.735C793.22 155.193 783.316 171.017 783.316 171.017C783.316 171.017 773.413 155.193 773.413 149.735C773.312 148.376 773.493 147.011 773.944 145.725C774.395 144.439 775.106 143.26 776.033 142.261C776.96 141.263 778.082 140.467 779.331 139.922C780.58 139.377 781.927 139.096 783.289 139.096C784.651 139.096 785.999 139.377 787.247 139.922C788.496 140.467 789.619 141.263 790.546 142.261C791.473 143.26 792.184 144.439 792.635 145.725C793.085 147.011 793.266 148.376 793.166 149.735H793.22Z" fill="#023E8A"/>
<path d="M809.506 179.961C806.544 184.545 789.618 192.462 789.618 192.462C789.618 192.462 789.924 173.809 792.886 169.225C794.393 167.221 796.603 165.863 799.071 165.425C801.539 164.987 804.081 165.502 806.184 166.865C808.288 168.228 809.797 170.338 810.407 172.77C811.016 175.202 810.682 177.775 809.47 179.97L809.506 179.961Z" fill="#023E8A"/>
<path d="M808.795 231.632C803.924 234.091 785.387 232.388 785.387 232.388C785.387 232.388 795.065 216.438 799.936 213.979C802.245 213.02 804.832 212.97 807.176 213.84C809.521 214.709 811.45 216.434 812.576 218.667C813.702 220.901 813.941 223.478 813.247 225.881C812.552 228.284 810.975 230.335 808.831 231.623L808.795 231.632Z" fill="#023E8A"/>
<path d="M799.459 270.639C795.074 273.882 776.474 275.35 776.474 275.35C776.474 275.35 783.316 257.994 787.71 254.743C789.824 253.457 792.342 253.01 794.77 253.489C797.197 253.969 799.357 255.339 800.825 257.332C802.292 259.324 802.962 261.794 802.7 264.255C802.439 266.716 801.267 268.99 799.414 270.63L799.459 270.639Z" fill="#023E8A"/>
<path d="M768.911 193.516C772.828 197.317 791.059 201.261 791.059 201.261C791.059 201.261 786.557 183.149 782.677 179.339C781.771 178.324 780.667 177.506 779.431 176.937C778.196 176.367 776.857 176.058 775.497 176.03C774.137 176.001 772.786 176.252 771.528 176.769C770.269 177.285 769.131 178.055 768.183 179.031C767.235 180.007 766.499 181.168 766.019 182.441C765.54 183.715 765.327 185.073 765.396 186.432C765.464 187.791 765.811 189.121 766.416 190.34C767.021 191.559 767.87 192.64 768.911 193.516Z" fill="#023E8A"/>
<path d="M758.567 239.233C763.437 241.692 781.975 239.99 781.975 239.99C781.975 239.99 772.296 224.039 767.426 221.58C765.116 220.621 762.53 220.571 760.185 221.441C757.841 222.311 755.912 224.036 754.786 226.269C753.66 228.503 753.42 231.079 754.115 233.482C754.809 235.885 756.387 237.937 758.53 239.224L758.567 239.233Z" fill="#023E8A"/>
<path d="M754.605 285.05C758.99 288.292 777.59 289.76 777.59 289.76C777.59 289.76 770.748 272.405 766.354 269.153C765.324 268.242 764.116 267.555 762.807 267.137C761.497 266.718 760.115 266.577 758.747 266.722C757.38 266.867 756.058 267.296 754.866 267.98C753.673 268.664 752.636 269.589 751.82 270.697C751.005 271.804 750.429 273.069 750.128 274.411C749.828 275.753 749.811 277.143 750.077 278.492C750.343 279.842 750.887 281.121 751.674 282.248C752.462 283.376 753.475 284.327 754.65 285.041L754.605 285.05Z" fill="#023E8A"/>
<path opacity="0.1" d="M793.22 149.735C793.22 155.193 783.316 171.017 783.316 171.017C783.316 171.017 773.413 155.193 773.413 149.735C773.312 148.376 773.493 147.011 773.944 145.725C774.395 144.439 775.106 143.26 776.033 142.261C776.96 141.263 778.082 140.467 779.331 139.922C780.58 139.377 781.927 139.096 783.289 139.096C784.651 139.096 785.999 139.377 787.247 139.922C788.496 140.467 789.619 141.263 790.546 142.261C791.473 143.26 792.184 144.439 792.635 145.725C793.085 147.011 793.266 148.376 793.166 149.735H793.22Z" fill="#023E8A"/>
<path opacity="0.1" d="M809.506 179.961C806.544 184.545 789.618 192.462 789.618 192.462C789.618 192.462 789.924 173.809 792.886 169.225C794.393 167.221 796.603 165.863 799.071 165.425C801.539 164.987 804.081 165.502 806.184 166.865C808.288 168.228 809.797 170.338 810.407 172.77C811.016 175.202 810.682 177.775 809.47 179.97L809.506 179.961Z" fill="#023E8A"/>
<path opacity="0.1" d="M808.795 231.632C803.924 234.091 785.387 232.388 785.387 232.388C785.387 232.388 795.065 216.438 799.936 213.979C802.245 213.02 804.832 212.97 807.176 213.84C809.521 214.709 811.45 216.434 812.576 218.667C813.702 220.901 813.941 223.478 813.247 225.881C812.552 228.284 810.975 230.335 808.831 231.623L808.795 231.632Z" fill="#023E8A"/>
<path opacity="0.1" d="M799.459 270.639C795.074 273.882 776.474 275.35 776.474 275.35C776.474 275.35 783.316 257.994 787.71 254.743C789.824 253.457 792.342 253.01 794.77 253.489C797.197 253.969 799.357 255.339 800.825 257.332C802.292 259.324 802.962 261.794 802.7 264.255C802.439 266.716 801.267 268.99 799.414 270.63L799.459 270.639Z" fill="#023E8A"/>
<path opacity="0.1" d="M768.911 193.516C772.828 197.317 791.059 201.261 791.059 201.261C791.059 201.261 786.557 183.149 782.677 179.339C781.771 178.324 780.667 177.506 779.431 176.937C778.196 176.367 776.857 176.058 775.497 176.03C774.137 176.001 772.786 176.252 771.528 176.769C770.269 177.285 769.131 178.055 768.183 179.031C767.235 180.007 766.499 181.168 766.019 182.441C765.54 183.715 765.327 185.073 765.396 186.432C765.464 187.791 765.811 189.121 766.416 190.34C767.021 191.559 767.87 192.64 768.911 193.516Z" fill="#023E8A"/>
<path opacity="0.1" d="M758.567 239.233C763.437 241.692 781.975 239.99 781.975 239.99C781.975 239.99 772.296 224.039 767.426 221.58C765.116 220.621 762.53 220.571 760.185 221.441C757.841 222.311 755.912 224.036 754.786 226.269C753.66 228.503 753.42 231.079 754.115 233.482C754.809 235.885 756.387 237.937 758.53 239.224L758.567 239.233Z" fill="#023E8A"/>
<path opacity="0.1" d="M754.605 285.05C758.99 288.292 777.59 289.76 777.59 289.76C777.59 289.76 770.748 272.405 766.354 269.153C765.324 268.242 764.116 267.555 762.807 267.137C761.497 266.718 760.115 266.577 758.747 266.722C757.38 266.867 756.058 267.296 754.866 267.98C753.673 268.664 752.636 269.589 751.82 270.697C751.005 271.804 750.429 273.069 750.128 274.411C749.828 275.753 749.811 277.143 750.077 278.492C750.343 279.842 750.887 281.121 751.674 282.248C752.462 283.376 753.475 284.327 754.65 285.041L754.605 285.05Z" fill="#023E8A"/>
<path d="M836.506 383.753C836.506 383.753 823.398 339.216 838.964 306.441C845.585 292.733 847.581 277.247 844.654 262.308C843.208 255.227 841.117 248.293 838.406 241.593" stroke="#535461" stroke-width="2" stroke-miterlimit="10"/>
<path d="M848.139 220.887C848.139 226.345 838.235 242.169 838.235 242.169C838.235 242.169 828.332 226.345 828.332 220.887C828.231 219.528 828.412 218.163 828.863 216.877C829.314 215.591 830.025 214.412 830.952 213.414C831.878 212.415 833.001 211.619 834.25 211.074C835.499 210.53 836.846 210.248 838.208 210.248C839.57 210.248 840.918 210.53 842.166 211.074C843.415 211.619 844.538 212.415 845.465 213.414C846.392 214.412 847.103 215.591 847.554 216.877C848.004 218.163 848.185 219.528 848.084 220.887H848.139Z" fill="#023E8A"/>
<path d="M864.425 251.113C861.463 255.697 844.573 263.605 844.573 263.605C844.573 263.605 844.879 244.953 847.841 240.368C848.498 239.178 849.393 238.136 850.47 237.307C851.547 236.477 852.783 235.879 854.101 235.548C855.42 235.217 856.792 235.161 858.132 235.384C859.473 235.607 860.754 236.103 861.894 236.842C863.035 237.581 864.011 238.547 864.763 239.68C865.514 240.813 866.024 242.088 866.262 243.427C866.499 244.766 866.459 246.139 866.143 247.461C865.827 248.783 865.242 250.027 864.425 251.113Z" fill="#023E8A"/>
<path d="M863.714 302.784C858.843 305.243 840.306 303.54 840.306 303.54C840.306 303.54 849.984 287.59 854.855 285.131C856.022 284.43 857.322 283.977 858.672 283.801C860.023 283.625 861.395 283.729 862.703 284.107C864.012 284.486 865.228 285.13 866.276 286C867.324 286.87 868.182 287.947 868.795 289.163C869.408 290.38 869.764 291.71 869.84 293.07C869.917 294.43 869.712 295.792 869.238 297.069C868.765 298.347 868.033 299.513 867.089 300.494C866.144 301.476 865.008 302.252 863.75 302.775L863.714 302.784Z" fill="#023E8A"/>
<path d="M854.378 341.791C849.993 345.034 831.393 346.502 831.393 346.502C831.393 346.502 838.235 329.146 842.628 325.895C844.743 324.609 847.261 324.162 849.689 324.642C852.116 325.121 854.276 326.491 855.744 328.484C857.211 330.476 857.88 332.946 857.619 335.407C857.358 337.868 856.186 340.143 854.332 341.782L854.378 341.791Z" fill="#023E8A"/>
<path d="M823.83 264.668C827.747 268.469 845.978 272.414 845.978 272.414C845.978 272.414 841.476 254.301 837.596 250.492C835.68 248.879 833.224 248.052 830.723 248.178C828.222 248.304 825.862 249.373 824.117 251.17C822.372 252.966 821.372 255.358 821.319 257.862C821.266 260.367 822.163 262.799 823.83 264.668Z" fill="#023E8A"/>
<path d="M813.485 310.385C818.356 312.844 836.894 311.142 836.894 311.142C836.894 311.142 827.215 295.191 822.344 292.732C820.035 291.773 817.449 291.724 815.104 292.593C812.76 293.463 810.831 295.188 809.705 297.421C808.579 299.655 808.339 302.232 809.034 304.635C809.728 307.038 811.306 309.089 813.449 310.376L813.485 310.385Z" fill="#023E8A"/>
<path d="M809.524 356.202C813.909 359.444 832.509 360.912 832.509 360.912C832.509 360.912 825.667 343.557 821.273 340.305C820.243 339.394 819.035 338.707 817.726 338.289C816.416 337.87 815.034 337.729 813.667 337.874C812.3 338.019 810.978 338.448 809.785 339.132C808.592 339.816 807.555 340.741 806.74 341.849C805.924 342.956 805.348 344.221 805.048 345.563C804.747 346.905 804.73 348.295 804.996 349.644C805.262 350.994 805.806 352.273 806.594 353.4C807.381 354.528 808.394 355.479 809.569 356.193L809.524 356.202Z" fill="#023E8A"/>
<path opacity="0.1" d="M848.139 220.887C848.139 226.345 838.235 242.169 838.235 242.169C838.235 242.169 828.332 226.345 828.332 220.887C828.231 219.528 828.412 218.163 828.863 216.877C829.314 215.591 830.025 214.412 830.952 213.414C831.878 212.415 833.001 211.619 834.25 211.074C835.499 210.53 836.846 210.248 838.208 210.248C839.57 210.248 840.918 210.53 842.166 211.074C843.415 211.619 844.538 212.415 845.465 213.414C846.392 214.412 847.103 215.591 847.554 216.877C848.004 218.163 848.185 219.528 848.084 220.887H848.139Z" fill="#023E8A"/>
<path opacity="0.1" d="M864.425 251.113C861.463 255.697 844.573 263.605 844.573 263.605C844.573 263.605 844.879 244.953 847.841 240.368C848.498 239.178 849.393 238.136 850.47 237.307C851.547 236.477 852.783 235.879 854.101 235.548C855.42 235.217 856.792 235.161 858.132 235.384C859.473 235.607 860.754 236.103 861.894 236.842C863.035 237.581 864.011 238.547 864.763 239.68C865.514 240.813 866.024 242.088 866.262 243.427C866.499 244.766 866.459 246.139 866.143 247.461C865.827 248.783 865.242 250.027 864.425 251.113Z" fill="#023E8A"/>
<path opacity="0.1" d="M863.714 302.784C858.843 305.243 840.306 303.54 840.306 303.54C840.306 303.54 849.984 287.59 854.855 285.131C856.022 284.43 857.322 283.977 858.672 283.801C860.023 283.625 861.395 283.729 862.703 284.107C864.012 284.486 865.228 285.13 866.276 286C867.324 286.87 868.182 287.947 868.795 289.163C869.408 290.38 869.764 291.71 869.84 293.07C869.917 294.43 869.712 295.792 869.238 297.069C868.765 298.347 868.033 299.513 867.089 300.494C866.144 301.476 865.008 302.252 863.75 302.775L863.714 302.784Z" fill="#023E8A"/>
<path opacity="0.1" d="M854.378 341.791C849.993 345.034 831.393 346.502 831.393 346.502C831.393 346.502 838.235 329.146 842.628 325.895C844.743 324.609 847.261 324.162 849.689 324.642C852.116 325.121 854.276 326.491 855.744 328.484C857.211 330.476 857.88 332.946 857.619 335.407C857.358 337.868 856.186 340.143 854.332 341.782L854.378 341.791Z" fill="#023E8A"/>
<path opacity="0.1" d="M823.83 264.668C827.747 268.469 845.978 272.414 845.978 272.414C845.978 272.414 841.476 254.301 837.596 250.492C835.68 248.879 833.224 248.052 830.723 248.178C828.222 248.304 825.862 249.373 824.117 251.17C822.372 252.966 821.372 255.358 821.319 257.862C821.266 260.367 822.163 262.799 823.83 264.668Z" fill="#023E8A"/>
<path opacity="0.1" d="M813.485 310.385C818.356 312.844 836.894 311.142 836.894 311.142C836.894 311.142 827.215 295.191 822.344 292.732C820.035 291.773 817.449 291.724 815.104 292.593C812.76 293.463 810.831 295.188 809.705 297.421C808.579 299.655 808.339 302.232 809.034 304.635C809.728 307.038 811.306 309.089 813.449 310.376L813.485 310.385Z" fill="#023E8A"/>
<path opacity="0.1" d="M809.524 356.202C813.909 359.444 832.509 360.912 832.509 360.912C832.509 360.912 825.667 343.557 821.273 340.305C820.243 339.394 819.035 338.707 817.726 338.289C816.416 337.87 815.034 337.729 813.667 337.874C812.3 338.019 810.978 338.448 809.785 339.132C808.592 339.816 807.555 340.741 806.74 341.849C805.924 342.956 805.348 344.221 805.048 345.563C804.747 346.905 804.73 348.295 804.996 349.644C805.262 350.994 805.806 352.273 806.594 353.4C807.381 354.528 808.394 355.479 809.569 356.193L809.524 356.202Z" fill="#023E8A"/>
<path opacity="0.1" d="M486.117 532.66C730.657 508.802 925.784 457.54 921.946 418.162C918.107 378.784 716.756 366.202 472.216 390.059C227.675 413.917 32.5482 465.179 36.387 504.557C40.2257 543.935 241.577 556.517 486.117 532.66Z" fill="#023E8A"/>
<path d="M883.413 424.436C900.06 390.301 896.62 334.739 894.847 315.879C894.46 311.754 894.153 309.386 894.153 309.386C894.153 309.386 879.478 307.071 884.889 289.301C887.536 280.601 878.137 275.791 867.873 273.152C860.535 271.396 853.047 270.338 845.51 269.991L703.359 261.209C683.868 230.263 645.514 235.234 645.514 235.234C645.514 235.234 611.303 231.677 587.048 231.307C583.367 228.063 579.332 225.244 575.02 222.904C572.451 221.36 569.714 220.112 566.863 219.185C563.397 218.184 559.745 218.009 556.199 218.674C552.654 219.339 549.313 220.824 546.444 223.012C545.046 224.019 543.907 225.343 543.122 226.876C542.82 227.573 542.593 228.301 542.447 229.047C542.081 230.319 541.78 231.608 541.546 232.911C541.335 233.538 541.032 234.13 540.646 234.667C539.674 236.045 537.999 237.081 537.783 238.747C537.778 238.843 537.778 238.939 537.783 239.035C537.605 239.353 537.486 239.701 537.432 240.062C537.367 240.803 537.527 241.547 537.891 242.196C537.945 242.305 538.008 242.404 538.071 242.503C536.874 244.236 535.897 246.112 535.163 248.087C534.83 248.268 534.508 248.47 534.2 248.69L533.93 248.888V249.438L533.777 249.555L533.444 258.426L533.633 258.57C533.905 262.709 535.153 266.724 537.275 270.287C539.397 273.85 542.333 276.86 545.841 279.069C545.958 279.637 546.066 280.213 546.174 280.817C546.668 283.726 546.892 286.675 546.84 289.625H546.687C542.456 287.824 535.217 290.472 528.996 293.561H448.4C464.12 273.332 483.35 257.643 483.35 257.643V239.864C469.612 239.179 348.916 297.182 322.456 309.989L321.285 310.557L185.293 314.772C160.661 314.619 139.125 318.239 120.471 324.138C89.298 333.934 61.2856 351.837 39.2986 376.017C23.237 393.651 16.1966 408.224 16.1966 408.224L16.3497 409.449L16.1966 409.764L16.4127 409.953L20.0769 438.883L22.5978 458.787C5.07775 470.117 27.7746 474.657 27.7746 474.657C49.3821 493.192 84.1431 492.427 84.1431 492.427C92.6331 504.018 117.347 502.469 117.347 502.469H247.072C249.093 490.555 251.798 478.766 255.175 467.163C260.712 507.054 292.178 537.613 330.153 537.613C332.97 537.611 335.784 537.44 338.58 537.1C341.376 537.44 344.19 537.611 347.007 537.613C385.423 537.613 417.168 506.333 422.165 465.776H428.512C427.327 474.838 425.268 483.763 422.363 492.427C538.962 458.436 755.947 442.215 755.947 442.215C756.847 433.659 757.837 425.391 758.909 417.456C767.849 439.657 788.115 455.158 811.703 455.158C813.846 455.154 815.986 455.022 818.113 454.761C820.24 455.022 822.381 455.154 824.523 455.158C852.532 455.158 875.841 433.298 881.099 404.315C881.795 409.43 882.192 414.582 882.287 419.744C881.288 424.661 880.415 427.804 880.298 428.246C881 426.961 881.666 425.646 882.296 424.301C882.296 424.823 882.296 425.364 882.296 425.904C882.08 426.805 881.927 427.309 881.882 427.48L882.278 426.742C882.278 427.138 882.278 427.525 882.278 427.922C882.188 427.958 882.665 426.661 883.413 424.436Z" fill="url(#paint0_linear_92_446)"/>
<path d="M869.809 301.784H602.506V409.656H869.809V301.784Z" fill="#6F7D95"/>
<path d="M534.542 251.266L572.508 336.351L647.693 331.794L650.727 296.848L653.005 255.823L546.696 248.222L534.542 251.266Z" fill="#4B5C7A"/>
<path d="M534.542 251.266C534.542 251.266 548.947 237.594 566.44 234.55C583.933 231.506 642.381 237.585 642.381 237.585L650.736 251.996L649.17 258.859L534.542 251.266Z" fill="#FF4D52"/>
<path d="M677.683 294.948H408.102V373.954H677.683V294.948Z" fill="#4B5C7A"/>
<path d="M611.356 348.699C618.478 324.877 604.28 309.224 604.28 309.224L580.746 292.796C580.726 292.851 580.702 292.906 580.674 292.958C577.613 289.369 575.422 285.122 574.273 280.547C574.201 280.258 574.138 279.961 574.066 279.646C576.217 278.047 578.101 276.116 579.648 273.927C583.483 271.576 585.193 267.793 585.842 264.019C588.309 260.357 590.274 256.379 591.685 252.194C591.918 251.517 592.116 250.828 592.279 250.131C592.732 248.833 592.934 247.461 592.873 246.087C592.681 244.558 592.172 243.085 591.379 241.764C587.417 234.559 580.287 229.542 573.057 225.453C570.53 223.935 567.839 222.708 565.035 221.796C561.627 220.814 558.037 220.642 554.55 221.296C551.064 221.95 547.779 223.41 544.958 225.561C543.583 226.551 542.463 227.854 541.69 229.362C541.392 230.048 541.169 230.763 541.024 231.497C540.675 232.748 540.389 234.017 540.169 235.297C539.973 235.909 539.687 236.489 539.323 237.018C538.359 238.369 536.721 239.386 536.505 241.035C536.499 241.131 536.499 241.227 536.505 241.323C536.331 241.636 536.215 241.977 536.162 242.332C536.096 243.061 536.253 243.793 536.613 244.43C536.667 244.538 536.73 244.637 536.793 244.736C535.614 246.442 534.653 248.287 533.93 250.23C533.6 250.409 533.281 250.607 532.975 250.825L532.714 251.014V251.554L532.561 251.671L532.228 260.399L532.408 260.543C532.674 264.614 533.9 268.563 535.986 272.069C538.072 275.574 540.959 278.535 544.409 280.709C544.526 281.267 544.634 281.834 544.733 282.429C545.277 285.571 545.494 288.762 545.382 291.949C545.346 291.674 545.346 291.395 545.382 291.12C538.872 288.175 524.674 296.317 518.957 299.92C518.091 300.331 517.283 300.854 516.554 301.478L516.455 301.55C512.52 304.738 504.751 313.601 498.583 336.378C490.03 368.163 490.922 375.368 484.692 382.735C478.461 390.103 472.276 442.008 472.276 442.008L484.818 445.385L486.42 440.234C501.329 453.834 543.077 460.381 543.077 460.381L544.355 456.409C550.757 458.715 561.461 455.212 561.461 455.212C577.109 449.681 582.97 435.649 594.323 417.141C605.676 398.632 611.356 348.699 611.356 348.699ZM548.245 444.467L577.145 354.788C579.765 368.712 568.205 390.643 567.178 404.982C566.539 414.204 555.807 432.533 548.245 444.467Z" fill="url(#paint1_linear_92_446)"/>
<path d="M584.401 254.337C584.401 254.337 589.434 273.512 574.498 276.854C559.561 280.195 569.402 268.235 569.402 268.235L583.807 254.193L584.401 254.337Z" fill="#472727"/>
<path d="M521.956 300.037C521.956 300.037 510.846 304.54 502.68 334.874C494.514 365.209 495.324 372.054 489.445 379.106C483.566 386.158 477.543 435.64 477.543 435.64L489.301 438.811L499.538 405.738L527.691 318.374L521.956 300.037Z" fill="#DDE0E4"/>
<path opacity="0.05" d="M521.956 300.037C521.956 300.037 510.846 304.54 502.68 334.874C494.514 365.209 495.324 372.054 489.445 379.106C483.566 386.158 477.543 435.64 477.543 435.64L489.301 438.811L499.538 405.738L527.691 318.374L521.956 300.037Z" fill="black"/>
<path d="M583.645 296.614C583.645 296.614 537.135 320.266 543.941 304.837C547.308 297.218 547.182 289.319 546.201 283.222C545.641 279.63 544.659 276.117 543.275 272.756C543.275 272.756 574.894 247.736 573.039 268.162C572.595 272.559 572.9 276.999 573.94 281.294C576.677 292.129 583.645 296.614 583.645 296.614Z" fill="#DB8B8B"/>
<path opacity="0.1" d="M573.94 281.33C570.949 283.733 567.432 285.394 563.676 286.176C559.921 286.959 556.033 286.842 552.332 285.833C550.167 285.251 548.093 284.375 546.165 283.23C545.605 279.639 544.623 276.126 543.239 272.765C543.239 272.765 574.858 247.744 573.003 268.171C572.568 272.579 572.885 277.029 573.94 281.33Z" fill="black"/>
<path d="M582.54 267.441C586.035 254.453 578.345 241.089 565.362 237.592C552.379 234.095 539.021 241.789 535.525 254.777C532.03 267.764 539.72 281.128 552.703 284.625C565.686 288.122 579.044 280.428 582.54 267.441Z" fill="#DB8B8B"/>
<path opacity="0.1" d="M546.804 249.231C546.136 249.639 545.393 249.908 544.619 250.021C543.844 250.135 543.055 250.09 542.298 249.891C541.541 249.692 540.832 249.341 540.214 248.861C539.596 248.381 539.082 247.78 538.701 247.096C538.367 246.486 538.223 245.789 538.287 245.097C538.494 243.529 540.043 242.557 540.988 241.26C542.456 239.161 542.177 236.288 543.239 233.955C543.97 232.531 545.025 231.297 546.318 230.353C548.949 228.295 552.03 226.889 555.308 226.251C558.586 225.612 561.969 225.759 565.18 226.678C567.807 227.536 570.326 228.693 572.688 230.128C579.459 233.991 586.13 238.72 589.794 245.592C590.536 246.853 591.009 248.255 591.181 249.708C591.221 251.278 590.946 252.84 590.37 254.301C589.016 258.338 587.13 262.175 584.761 265.713C583.969 264.729 582.974 263.927 581.844 263.362C581.274 263.092 580.633 263.009 580.013 263.124C579.392 263.238 578.823 263.545 578.387 264.001C577.604 265.001 577.127 266.911 575.938 266.46C575.164 266.172 575.173 265.1 575.209 264.272C575.371 260.669 573.408 257.274 570.77 254.842C568.133 252.41 564.864 250.807 561.641 249.231C559.328 248.096 556.239 245.493 553.701 245.034C550.55 244.448 549.064 247.835 546.804 249.231Z" fill="black"/>
<path d="M547.137 247.997C546.469 248.405 545.726 248.674 544.952 248.787C544.177 248.901 543.388 248.856 542.631 248.657C541.874 248.458 541.165 248.107 540.547 247.627C539.929 247.147 539.415 246.546 539.034 245.862C538.7 245.252 538.556 244.556 538.62 243.863C538.827 242.296 540.376 241.323 541.321 240.026C542.789 237.927 542.51 235.054 543.572 232.721C544.303 231.297 545.358 230.063 546.651 229.119C549.282 227.061 552.363 225.656 555.641 225.017C558.919 224.378 562.302 224.525 565.513 225.444C568.14 226.302 570.659 227.459 573.021 228.894C579.792 232.758 586.463 237.486 590.127 244.358C590.869 245.619 591.342 247.021 591.514 248.474C591.554 250.044 591.279 251.606 590.703 253.067C589.349 257.104 587.463 260.941 585.094 264.479C584.302 263.495 583.307 262.693 582.177 262.128C581.607 261.858 580.966 261.775 580.346 261.89C579.725 262.004 579.156 262.312 578.72 262.768C577.937 263.767 577.46 265.677 576.271 265.226C575.497 264.938 575.506 263.866 575.542 263.038C575.704 259.435 573.741 256.04 571.103 253.608C568.466 251.176 565.197 249.573 561.974 247.997C559.661 246.862 556.573 244.259 554.034 243.8C550.883 243.205 549.397 246.601 547.137 247.997Z" fill="#472727"/>
<path d="M559.886 299.839C559.886 299.839 579.143 296.065 579.981 292.976L602.002 308.53C602.002 308.53 615.255 323.382 608.475 346.115C608.475 346.115 602.957 393.751 592.225 411.43C581.493 429.11 575.326 452.014 560.624 457.364C560.624 457.364 546.489 448.249 541.825 448.358C541.825 448.358 565.765 413.655 566.791 399.992C567.817 386.329 578.756 365.38 576.361 352.122L543.95 452.906C543.95 452.906 491.732 444.8 486.438 427.462C486.438 427.462 490.94 420.698 490.103 413.844C489.265 406.99 509.801 355.427 509.801 355.427L519.633 301.658C519.633 301.658 539.079 288.067 546.822 291.598C546.786 291.544 545.382 298.254 559.886 299.839Z" fill="#DDE0E4"/>
<g opacity="0.1">
<path d="M566.899 258.03C562.146 251.545 553.079 256.868 551.594 257.796L549.262 257.562C547.227 255.346 540.988 249.456 535.127 253.788L534.875 253.977L534.524 262.29L534.776 262.488C536.469 263.796 538.389 264.779 540.439 265.388C541.737 265.77 543.107 265.838 544.436 265.587C545.42 265.36 546.342 264.919 547.137 264.297C547.932 263.674 548.58 262.885 549.037 261.984L550.252 262.065L551.153 261.894C551.333 262.852 551.715 263.76 552.274 264.558C552.833 265.357 553.556 266.026 554.394 266.523C558.418 268.802 564.297 266.523 564.54 266.478L564.846 266.361L567.007 258.318L566.899 258.03ZM563.847 265.343C562.65 265.749 558.13 267.082 555.096 265.343C554.341 264.87 553.704 264.229 553.236 263.47C552.767 262.711 552.48 261.854 552.395 260.966L552.287 260.309L550.315 260.714L548.335 260.642L548.146 261.02C547.784 261.838 547.24 262.563 546.555 263.137C545.87 263.712 545.062 264.122 544.193 264.335C540.799 265.064 536.874 262.434 535.847 261.687L536.145 254.662C541.24 251.23 546.858 256.796 548.479 258.615L548.65 258.805L551.936 259.129L552.134 258.994C552.224 258.94 560.39 253.455 565.045 257.868C565.275 258.082 565.489 258.314 565.684 258.561L563.847 265.343Z" fill="black"/>
<path d="M581.646 262.209L566.341 260.939L565.081 260.696L565.648 258.57C565.453 258.323 565.239 258.091 565.009 257.877L566.863 258.057L579.386 259.282L581.646 262.209Z" fill="black"/>
</g>
<path d="M567.061 257.454C562.308 250.969 553.241 256.292 551.756 257.219L549.424 256.985C547.389 254.77 541.15 248.879 535.289 253.212L535.037 253.401L534.686 261.714L534.938 261.912C536.631 263.219 538.551 264.203 540.601 264.812C541.899 265.194 543.269 265.262 544.598 265.01C545.582 264.783 546.504 264.343 547.299 263.72C548.094 263.098 548.743 262.308 549.199 261.408L550.414 261.489L551.315 261.317C551.495 262.275 551.877 263.184 552.436 263.982C552.995 264.78 553.718 265.45 554.556 265.947C558.58 268.226 564.459 265.947 564.702 265.902L565.009 265.785L567.169 257.742L567.061 257.454ZM564.009 264.767C562.812 265.172 558.292 266.505 555.258 264.767C554.503 264.293 553.866 263.652 553.398 262.893C552.93 262.134 552.642 261.278 552.557 260.39L552.449 259.732L550.477 260.138L548.524 260.012L548.335 260.39C547.98 261.213 547.44 261.943 546.758 262.524C546.076 263.105 545.269 263.521 544.4 263.74C541.006 264.47 537.081 261.84 536.054 261.092L536.352 254.067C541.447 250.636 547.065 256.202 548.686 258.021L548.857 258.21L552.143 258.534L552.341 258.399C552.431 258.345 560.597 252.86 565.252 257.274C565.482 257.488 565.696 257.719 565.891 257.967L564.009 264.767Z" fill="#472727"/>
<path d="M581.79 261.633L566.539 260.363L565.279 260.12L565.846 257.994C565.651 257.747 565.437 257.515 565.207 257.301L567.061 257.481L579.585 258.706L581.79 261.633Z" fill="#472727"/>
<path d="M477.201 356.481H209.899V464.353H477.201V356.481Z" fill="#6F7D95"/>
<path d="M332.233 535.001C373.428 535.001 406.824 498.439 406.824 453.338C406.824 408.237 373.428 371.675 332.233 371.675C291.038 371.675 257.642 408.237 257.642 453.338C257.642 498.439 291.038 535.001 332.233 535.001Z" fill="#4B5C7A"/>
<path opacity="0.05" d="M332.233 535.001C373.428 535.001 406.824 498.439 406.824 453.338C406.824 408.237 373.428 371.675 332.233 371.675C291.038 371.675 257.642 408.237 257.642 453.338C257.642 498.439 291.038 535.001 332.233 535.001Z" fill="black"/>
<path d="M348.808 535.001C390.003 535.001 423.398 498.439 423.398 453.338C423.398 408.237 390.003 371.675 348.808 371.675C307.612 371.675 274.217 408.237 274.217 453.338C274.217 498.439 307.612 535.001 348.808 535.001Z" fill="#4B5C7A"/>
<path opacity="0.05" d="M347.151 486.915C365.459 486.915 380.301 472.067 380.301 453.752C380.301 435.437 365.459 420.59 347.151 420.59C328.843 420.59 314.002 435.437 314.002 453.752C314.002 472.067 328.843 486.915 347.151 486.915Z" fill="black"/>
<path d="M347.151 463.705C352.645 463.705 357.1 459.249 357.1 453.752C357.1 448.256 352.645 443.8 347.151 443.8C341.657 443.8 337.203 448.256 337.203 453.752C337.203 459.249 341.657 463.705 347.151 463.705Z" stroke="#6F7D95" stroke-width="2" stroke-miterlimit="10"/>
<path d="M347.151 438.829C348.523 438.829 349.636 437.716 349.636 436.343C349.636 434.97 348.523 433.857 347.151 433.857C345.779 433.857 344.666 434.97 344.666 436.343C344.666 437.716 345.779 438.829 347.151 438.829Z" fill="#6F7D95"/>
<path d="M362.346 443.047C363.397 442.165 363.534 440.597 362.652 439.545C361.77 438.494 360.202 438.356 359.151 439.239C358.1 440.121 357.963 441.689 358.845 442.741C359.727 443.793 361.294 443.93 362.346 443.047Z" fill="#6F7D95"/>
<path d="M368.279 455.085C368.517 453.733 367.614 452.443 366.263 452.205C364.911 451.967 363.623 452.869 363.384 454.221C363.146 455.573 364.048 456.863 365.4 457.101C366.751 457.339 368.04 456.437 368.279 455.085Z" fill="#6F7D95"/>
<path d="M359.97 469.382C361.159 468.696 361.566 467.176 360.88 465.987C360.193 464.798 358.674 464.39 357.485 465.077C356.297 465.763 355.89 467.284 356.576 468.472C357.262 469.661 358.782 470.069 359.97 469.382Z" fill="#6F7D95"/>
<path d="M346.887 470.728C347.357 469.438 346.692 468.011 345.402 467.542C344.113 467.072 342.687 467.738 342.217 469.028C341.748 470.318 342.413 471.744 343.702 472.214C344.992 472.683 346.418 472.018 346.887 470.728Z" fill="#6F7D95"/>
<path d="M334.256 463.051C335.546 462.581 336.211 461.155 335.742 459.865C335.272 458.575 333.846 457.91 332.557 458.379C331.267 458.849 330.602 460.275 331.072 461.565C331.541 462.855 332.967 463.521 334.256 463.051Z" fill="#6F7D95"/>
<path d="M335.415 447.521C336.102 446.332 335.694 444.812 334.506 444.126C333.317 443.439 331.798 443.846 331.112 445.035C330.425 446.224 330.833 447.745 332.021 448.431C333.21 449.118 334.729 448.71 335.415 447.521Z" fill="#6F7D95"/>
<path d="M884.772 390.229C882.224 407.828 875.139 427.093 875.139 427.093C875.187 425.892 875.217 424.706 875.229 423.535C875.229 422.022 875.229 420.527 875.229 419.032C874.328 370.522 847.904 340.594 830.861 326.264C826.432 322.488 821.667 319.124 816.627 316.213H862.948C862.948 316.213 881.171 353.437 884.97 371.666C886.068 376.782 885.762 383.384 884.772 390.229Z" fill="#FF4D52"/>
<path opacity="0.05" d="M884.772 390.229C882.224 407.828 875.139 427.093 875.139 427.093C875.187 425.892 875.217 424.706 875.229 423.535C875.229 422.022 875.229 420.527 875.229 419.032C874.328 370.522 847.904 340.594 830.861 326.264C826.432 322.488 821.667 319.124 816.627 316.213H862.948C862.948 316.213 881.171 353.437 884.97 371.666C886.068 376.782 885.762 383.384 884.772 390.229Z" fill="black"/>
<path d="M805.797 453.915C837.127 453.915 862.526 426.107 862.526 391.805C862.526 357.503 837.127 329.696 805.797 329.696C774.467 329.696 749.068 357.503 749.068 391.805C749.068 426.107 774.467 453.915 805.797 453.915Z" fill="#4B5C7A"/>
<path opacity="0.05" d="M805.797 453.915C837.127 453.915 862.526 426.107 862.526 391.805C862.526 357.503 837.127 329.696 805.797 329.696C774.467 329.696 749.068 357.503 749.068 391.805C749.068 426.107 774.467 453.915 805.797 453.915Z" fill="black"/>
<path d="M818.401 453.915C849.732 453.915 875.13 426.107 875.13 391.805C875.13 357.503 849.732 329.696 818.401 329.696C787.071 329.696 761.673 357.503 761.673 391.805C761.673 426.107 787.071 453.915 818.401 453.915Z" fill="#4B5C7A"/>
<path opacity="0.05" d="M817.141 417.339C831.063 417.339 842.35 406.048 842.35 392.12C842.35 378.193 831.063 366.902 817.141 366.902C803.218 366.902 791.932 378.193 791.932 392.12C791.932 406.048 803.218 417.339 817.141 417.339Z" fill="black"/>
<path d="M817.141 399.686C821.317 399.686 824.703 396.299 824.703 392.12C824.703 387.942 821.317 384.555 817.141 384.555C812.964 384.555 809.578 387.942 809.578 392.12C809.578 396.299 812.964 399.686 817.141 399.686Z" stroke="#6F7D95" stroke-width="2" stroke-miterlimit="10"/>
<path d="M817.141 380.772C818.185 380.772 819.032 379.925 819.032 378.881C819.032 377.836 818.185 376.989 817.141 376.989C816.097 376.989 815.25 377.836 815.25 378.881C815.25 379.925 816.097 380.772 817.141 380.772Z" fill="#6F7D95"/>
<path d="M828.703 383.979C829.503 383.307 829.608 382.114 828.936 381.314C828.265 380.514 827.073 380.409 826.273 381.081C825.473 381.752 825.369 382.945 826.04 383.746C826.711 384.546 827.903 384.65 828.703 383.979Z" fill="#6F7D95"/>
<path d="M833.208 393.141C833.39 392.113 832.703 391.132 831.675 390.95C830.646 390.769 829.666 391.456 829.485 392.485C829.303 393.513 829.99 394.494 831.018 394.676C832.047 394.857 833.027 394.17 833.208 393.141Z" fill="#6F7D95"/>
<path d="M826.898 404.013C827.802 403.491 828.112 402.334 827.59 401.43C827.068 400.525 825.911 400.215 825.007 400.737C824.103 401.26 823.793 402.416 824.315 403.321C824.837 404.226 825.993 404.536 826.898 404.013Z" fill="#6F7D95"/>
<path d="M816.945 405.034C817.302 404.052 816.796 402.967 815.815 402.609C814.834 402.252 813.749 402.758 813.392 403.74C813.034 404.721 813.54 405.807 814.522 406.164C815.503 406.521 816.588 406.015 816.945 405.034Z" fill="#6F7D95"/>
<path d="M807.335 399.187C808.316 398.83 808.822 397.745 808.465 396.763C808.108 395.781 807.023 395.275 806.042 395.633C805.06 395.99 804.554 397.075 804.912 398.057C805.269 399.038 806.354 399.544 807.335 399.187Z" fill="#6F7D95"/>
<path d="M808.227 387.379C808.749 386.475 808.44 385.318 807.535 384.795C806.631 384.273 805.475 384.583 804.953 385.488C804.431 386.392 804.74 387.549 805.645 388.071C806.549 388.594 807.705 388.284 808.227 387.379Z" fill="#6F7D95"/>
<path d="M30.3135 461.696L23.4531 407.756H104.706L146.472 444.98L125.972 492.841C125.972 492.841 43.26 479.169 30.3135 461.696Z" fill="#FF4D52"/>
<path opacity="0.05" d="M146.499 444.98L125.999 492.841C125.999 492.841 43.2599 479.169 30.3134 461.696L30.0163 459.346L23.7141 409.467L23.6511 408.972L23.498 407.765H104.751L146.499 444.98Z" fill="black"/>
<path d="M482.909 242.151V259.624C482.909 259.624 440.918 293.849 430.925 326.138C429.181 331.381 428.522 336.925 428.989 342.431C432.789 378.133 319.656 313.556 319.656 313.556L324.688 311.106C350.698 298.56 469.395 241.467 482.909 242.151Z" fill="#7597CE"/>
<path d="M578.594 326.48C578.594 326.48 617.92 307.152 624.231 292.85C625.077 290.931 625.878 288.995 626.815 287.112C630.713 279.268 638.906 260.867 634.783 252.032C629.471 240.638 647.693 253.554 647.693 253.554L637.06 307.476L611.239 321.887L577.829 326.48" fill="#FF4D52"/>
<path opacity="0.05" d="M578.594 326.48C578.594 326.48 617.92 307.152 624.231 292.85C625.077 290.931 625.878 288.995 626.815 287.112C630.713 279.268 638.906 260.867 634.783 252.032C629.471 240.638 647.693 253.554 647.693 253.554L637.06 307.476L611.239 321.887L577.829 326.48" fill="black"/>
<path opacity="0.05" d="M146.499 444.98L125.999 492.841C125.999 492.841 43.26 479.169 30.3136 461.696L30.0165 459.346C30.3496 459.12 30.7007 458.886 31.0698 458.661C31.0698 458.661 56.1255 478.413 113.088 482.979C113.088 482.979 147.3 455.626 91.8228 425.247C91.8228 425.247 43.5661 426.76 23.6873 409.476L23.4712 409.296L23.6242 408.981C23.7563 408.722 23.9694 408.32 24.2635 407.774H104.724L146.499 444.98Z" fill="black"/>
<path opacity="0.05" d="M428.989 342.422C432.789 378.133 319.656 313.556 319.656 313.556L324.688 311.106C328.019 314.655 341.317 326.624 367.903 325.327C385.009 324.49 410.983 325.255 430.97 326.129C429.21 331.369 428.537 336.913 428.989 342.422Z" fill="black"/>
<path opacity="0.05" d="M477.21 356.481V464.353H427.549C430.826 439.261 428.935 402.685 397.082 381.718C385.202 373.949 371.408 369.614 357.221 369.192C343.034 368.769 329.006 372.275 316.685 379.322C295.806 391.247 272.461 415.492 257.624 464.353H209.908V356.481H477.21Z" fill="black"/>
<path opacity="0.05" d="M884.772 390.229C882.899 402.136 879.892 413.7 875.238 423.553C874.637 424.88 873.983 426.174 873.275 427.435C873.392 426.994 874.247 423.914 875.238 419.068C880.063 395.471 888.319 330.173 833.004 326.444C832.284 326.399 831.573 326.354 830.861 326.327C826.434 322.529 821.67 319.144 816.627 316.213H862.948C862.948 316.213 881.171 353.437 884.97 371.666C886.068 376.782 885.762 383.384 884.772 390.229Z" fill="black"/>
<path d="M874.779 426.697C875.499 424.094 901.158 330.209 834.508 325.715C766.921 321.157 758.567 372.054 750.977 441.188C750.977 441.188 537.603 457.139 422.921 490.571C422.921 490.571 450.453 415.096 398.613 380.961C386.733 373.193 372.938 368.858 358.751 368.435C344.565 368.012 330.537 371.518 318.215 378.565C292.646 393.174 263.359 426.3 250.548 500.443H122.956C122.956 500.443 98.6472 501.965 90.3014 490.535C90.3014 490.535 56.0895 491.292 34.8692 473.063C34.8692 473.063 12.0913 468.505 30.3136 457.112C30.3136 457.112 56.1345 476.863 113.088 481.43C113.088 481.43 147.3 454.077 91.8229 423.697C91.8229 423.697 43.2061 425.22 23.4802 407.747C23.4802 407.747 30.4036 393.417 46.2041 376.08C67.8153 352.298 95.352 334.684 125.999 325.039C146.649 318.653 168.173 315.547 189.786 315.834L323.815 311.655C323.815 311.655 336.762 328.372 367.858 326.849C398.955 325.327 459.744 329.128 459.744 329.128H460.347L585.419 323.463C589.01 322.956 592.563 322.203 596.051 321.211C614.184 316.285 648.576 301.343 642.372 259.615L839.054 271.774C846.467 272.115 853.832 273.155 861.049 274.881C871.151 277.475 880.388 282.213 877.786 290.769C872.474 308.242 886.897 310.521 886.897 310.521C886.897 310.521 887.203 312.853 887.581 316.906C889.382 336.018 892.92 393.48 874.779 426.697Z" fill="#FF4D52"/>
<path opacity="0.05" d="M273.317 343.188C273.317 343.188 191.298 343.944 137.37 391.823H167.746C167.746 391.823 252.799 369.793 273.299 352.32L273.317 343.188Z" fill="black"/>
<path d="M272.551 342.422C272.551 342.422 190.533 343.178 136.604 391.058H166.981C166.981 391.058 252.033 369.027 272.533 351.555L272.551 342.422Z" fill="#FFEC9F"/>
<path opacity="0.05" d="M126.755 325.805V346.223L57.6649 378.133L46.9692 376.845C68.5779 353.065 96.1114 335.451 126.755 325.805Z" fill="black"/>
<path d="M125.99 325.048V345.466L56.8908 377.367L46.1951 376.079C67.8073 352.301 95.3439 334.69 125.99 325.048Z" fill="#FFEC9F"/>
<path opacity="0.05" d="M223.953 417.636C223.953 417.636 186.743 440.423 182.943 490.589H204.209C204.209 490.589 212.564 435.892 236.863 417.636H223.953Z" fill="black"/>
<path opacity="0.05" d="M663.647 419.158L470.755 441.945C470.755 441.945 457.998 360.705 460.356 329.101L585.428 323.436C589.015 322.937 592.565 322.194 596.051 321.211V328.75L690.215 305.963C690.215 305.963 706.168 329.506 663.647 419.158Z" fill="black"/>
<path d="M642.381 237.585C642.381 237.585 683.391 232.271 701.613 267.217L642.967 264.956L642.381 237.585Z" fill="#FF4D52"/>
<path opacity="0.05" d="M698.768 279.466C697.156 284.518 698.372 290.076 707.708 293.921C715.478 297.128 724.589 293.417 727.245 285.446C728.793 280.799 727.731 275.539 719.358 271.261C710.985 266.983 701.586 270.639 698.768 279.466Z" fill="black"/>
<path d="M24.9207 419.14C24.9207 419.14 73.5915 444.359 108.524 434.812" stroke="#FF4D52" stroke-miterlimit="10"/>
<path d="M26.6401 432.758C26.6401 432.758 58.088 457.022 121.65 451.384" stroke="#FF4D52" stroke-miterlimit="10"/>
<path d="M28.0896 444.188C28.0896 444.188 59.2854 471.27 123.388 462.687" stroke="#FF4D52" stroke-miterlimit="10"/>
<path opacity="0.05" d="M699.263 263.137C699.263 263.137 673.892 285.05 650.736 294.957C650.736 294.957 685.902 301.217 699.263 263.137Z" fill="black"/>
<path opacity="0.1" d="M430.484 327.633C430.484 327.633 550.874 339.008 596.429 328.372C596.429 328.372 598.86 329.984 584.356 323.481L430.484 327.633Z" fill="black"/>
<path opacity="0.05" d="M887.59 316.906C880.09 311.98 868.197 301.757 869.818 290.382C870.628 284.681 866.595 279.349 861.058 274.872C871.159 277.466 880.397 282.204 877.795 290.76C872.483 308.233 886.906 310.512 886.906 310.512C886.906 310.512 887.203 312.853 887.59 316.906Z" fill="black"/>
<path d="M282.5 396.2C282.572 393.192 282.5 390.067 282.275 387.194C282.275 386.644 282.185 386.113 282.131 385.591C283.823 386.87 284.832 387.842 284.832 387.842L283.346 309.629L275.153 268.658C275.153 239.603 259.515 231.416 259.515 231.416C259.515 231.416 251.322 227.687 249.089 222.481C246.856 217.275 227.068 206.269 227.059 206.269C226.902 204.373 226.842 202.47 226.879 200.568C226.879 200.073 226.879 199.559 226.924 199.046C231.885 195.755 235.483 190.775 237.051 185.031C238.619 179.286 238.05 173.167 235.45 167.811C236.548 167.811 237.439 167.352 237.853 165.721C239.168 160.561 237.898 152.788 234.909 148.663C234.27 147.8 233.55 147.001 232.758 146.276C231.83 145.345 230.853 144.464 229.832 143.637C227.275 141.512 224.43 139.278 221.261 139.458C219.463 139.694 217.735 140.308 216.192 141.26C208.275 145.427 200.379 149.63 192.505 153.869C189.597 155.445 186.599 157.102 184.564 159.93C182.529 162.758 181.71 166.379 181.143 169.937C180.666 172.347 180.554 174.815 180.81 177.259C181.048 179.483 182.065 181.55 183.682 183.095C184.008 183.489 184.379 183.843 184.789 184.149C186.392 185.32 188.453 185.608 190.128 186.554C191.394 190.231 193.513 193.555 196.313 196.254C196.313 196.713 196.25 197.154 196.214 197.659C196.115 198.947 195.962 200.361 195.764 201.793C195.764 201.793 190.263 201.649 182.07 212.817C173.877 223.985 156.006 225.48 156.006 225.48C156.006 225.48 149.308 222.499 141.862 256.022C134.417 289.544 132.184 311.863 135.902 315.609C137.481 316.973 139.261 318.084 141.178 318.906C147.49 322.093 154.281 324.223 161.282 325.21C161.371 325.479 161.522 325.723 161.723 325.922L162.254 332.416C162.704 346.124 163.227 373.621 160.454 379.718C156.726 387.914 161.201 393.129 161.201 393.129L162.101 393.066C162.268 393.349 162.454 393.62 162.659 393.877L166.261 393.633C166 408.945 165.297 430.182 163.443 434.848C160.463 442.296 163.443 483.267 163.443 483.267L158.23 557.013C158.23 557.013 155.376 595.507 158.05 599.966C156.591 607.973 153.971 623.23 154.512 627.03C155.259 632.245 172.383 639.694 172.383 639.694C172.383 639.694 192.487 644.197 202.165 642.675C207.225 641.891 209.232 638.469 209.25 635.47C215.814 636.523 224.358 637.532 229.715 636.704C239.393 635.217 237.907 624.04 232.695 624.788C227.482 625.535 221.522 615.052 217.092 609.837C214.841 607.207 212.969 602.505 211.69 598.48C212.632 598.338 213.496 597.876 214.139 597.174C216.372 593.445 220.099 559.184 220.099 559.184L229.778 499.596C229.778 499.596 234.99 470.541 239.456 463.84C242.832 458.778 247.055 421.005 248.918 402.811H249.08H249.134L249.332 402.172L252.132 393.129C253.627 395.768 257.39 397.074 261.775 397.632C261.306 399.542 260.919 401.1 260.694 401.992C259.578 406.495 275.856 413.907 279.781 410.188C281.428 408.629 282.284 402.982 282.482 396.804H282.617L282.5 396.2ZM184.672 599.335C184.42 600.785 184.168 602.298 183.916 603.838C183.349 602.037 182.898 600.416 182.592 599.218C183.331 599.245 184.024 599.281 184.672 599.335Z" fill="url(#paint2_linear_92_446)"/>
<path d="M209.637 583.808C209.637 583.808 212.509 596.723 216.84 601.74C221.17 606.757 226.878 616.799 231.893 616.087C236.908 615.376 238.348 626.13 229.021 627.562C219.694 628.994 200.337 624.689 200.337 624.689C200.337 624.689 183.844 617.483 183.132 612.494C182.421 607.504 187.436 581.646 187.436 581.646L209.637 583.808Z" fill="#53526B"/>
<path opacity="0.05" d="M209.637 583.808C209.637 583.808 212.509 596.723 216.84 601.74C221.17 606.757 226.878 616.799 231.893 616.087C236.908 615.376 238.348 626.13 229.021 627.562C219.694 628.994 200.337 624.689 200.337 624.689C200.337 624.689 183.844 617.483 183.132 612.494C182.421 607.504 187.436 581.646 187.436 581.646L209.637 583.808Z" fill="black"/>
<path d="M183.105 589.545C183.105 589.545 185.977 602.46 190.308 607.477C194.638 612.494 200.346 622.536 205.361 621.825C210.376 621.113 211.816 631.867 202.489 633.299C193.162 634.731 173.805 630.435 173.805 630.435C173.805 630.435 157.311 623.23 156.6 618.24C155.889 613.25 160.904 587.392 160.904 587.392L183.105 589.545Z" fill="#53526B"/>
<path d="M248.36 393.003C248.36 393.003 242.625 454.689 238.322 461.147C234.018 467.605 229.003 495.579 229.003 495.579L219.685 552.96C219.685 552.96 216.084 585.96 213.95 589.545C211.816 593.13 185.203 591.589 185.203 591.589L201.715 401.613L248.36 393.003Z" fill="#5F5D7E"/>
<path opacity="0.05" d="M248.36 393.003C248.36 393.003 242.625 454.689 238.322 461.147C234.018 467.605 229.003 495.579 229.003 495.579L219.685 552.96C219.685 552.96 216.084 585.96 213.95 589.545C211.816 593.13 185.203 591.589 185.203 591.589L201.715 401.613L248.36 393.003Z" fill="black"/>
<path d="M259.83 363.596L257.957 369.55L247.829 401.712L247.631 402.325H247.577C246.217 402.631 217.515 409.233 211.321 411.259C210.987 411.363 210.659 411.486 210.34 411.629C207.468 413.061 203.885 464.704 203.885 464.704C203.885 464.704 201.733 513.484 200.283 517.069C198.834 520.653 193.081 594.526 189.525 592.382C185.968 590.238 160.129 592.382 160.129 592.382C157.257 589.509 160.129 550.781 160.129 550.781L165.144 479.764C165.144 479.764 162.272 440.315 165.144 433.136C168.016 425.958 168.016 377.908 168.016 377.908L226.744 368.811L232.415 367.911L259.83 363.596Z" fill="#5F5D7E"/>
<path opacity="0.02" d="M257.957 369.55L247.829 401.712L247.586 402.343C246.226 402.649 217.524 409.251 211.33 411.277H210.709L226.744 368.811L227.203 367.586L232.416 367.92L257.957 369.55Z" fill="black"/>
<path opacity="0.1" d="M190.992 220.139C190.992 220.139 217.524 248.834 234.018 225.156L249.792 235.919L246.92 252.419L256.238 377.232C256.238 377.232 231.857 376.512 214.652 382.249C209.861 383.95 204.683 384.245 199.729 383.101C194.775 381.957 190.251 379.421 186.689 375.791L189.561 266.046L183.105 232.334L190.992 220.139Z" fill="black"/>
<path d="M190.992 217.987C190.992 217.987 217.524 246.682 234.018 223.003L249.791 233.766L246.919 250.266L256.247 375.116C256.247 375.116 231.866 374.395 214.661 380.133C209.869 381.833 204.692 382.129 199.738 380.984C194.784 379.84 190.259 377.304 186.698 373.675L189.57 263.929L183.114 230.218L190.992 217.987Z" fill="#53526B"/>
<path d="M246.208 366.461C246.208 366.461 246.208 385.113 250.512 393.003C254.815 400.893 279.907 396.606 279.907 396.606L274.892 370.063L246.208 366.461Z" fill="#D39999"/>
<path d="M277.179 409.503C273.398 413.106 257.723 405.9 258.803 401.613C259.56 398.578 262.207 387.716 263.71 381.556L264.755 377.223C264.755 377.223 273.938 374.35 277.179 377.223C278.358 378.268 279.187 382.384 279.574 387.356C280.24 395.993 279.583 407.224 277.179 409.503Z" fill="#FDC2CC"/>
<path d="M242.616 230.893L217.524 250.257C217.524 250.257 180.242 248.105 189.561 230.173C193.618 222.286 196.066 213.671 196.763 204.828C197.066 201.566 197.066 198.282 196.763 195.02C196.763 195.02 231.182 163.497 226.879 199.325C226.539 202.075 226.341 204.841 226.284 207.611C225.807 234.505 242.616 230.893 242.616 230.893Z" fill="#FDC2CC"/>
<path opacity="0.1" d="M226.843 199.334C226.503 202.084 226.305 204.85 226.248 207.62C222.386 210.179 217.854 211.539 213.221 211.529C206.802 211.529 202.075 205.278 197.807 201.126C198.285 195.173 196.736 195.029 196.736 195.029C196.736 195.029 231.146 163.461 226.843 199.334Z" fill="black"/>
<path d="M213.221 210.088C226.288 210.088 236.881 199.491 236.881 186.419C236.881 173.346 226.288 162.749 213.221 162.749C200.154 162.749 189.561 173.346 189.561 186.419C189.561 199.491 200.154 210.088 213.221 210.088Z" fill="#FDC2CC"/>
<path opacity="0.1" d="M196.376 209.016C196.376 209.016 192.433 209.376 184.546 220.13C176.659 230.884 159.4 232.325 159.4 232.325C159.4 232.325 152.945 229.452 145.779 261.732C138.612 294.011 136.46 315.528 140.044 319.113C143.627 322.697 157.969 327.723 165.135 327.723C165.135 327.723 167.287 372.909 163.704 380.799C160.12 388.689 164.424 393.714 164.424 393.714L195.935 391.562C195.935 391.562 206.694 377.935 208.845 354.266C210.997 330.596 218.164 263.164 214.58 255.274C210.997 247.384 195.224 227.3 195.935 225.147C196.646 222.994 196.376 209.016 196.376 209.016Z" fill="black"/>
<path d="M196.313 208.8C196.313 208.8 191.01 208.656 183.123 219.419C175.237 230.182 158.032 231.614 158.032 231.614C158.032 231.614 151.577 228.741 144.41 261.02C137.244 293.3 135.092 314.817 138.693 318.374C142.294 321.932 156.618 326.985 163.785 326.985C163.785 326.985 165.937 372.171 162.353 380.06C158.77 387.95 163.073 392.976 163.073 392.976L194.584 390.823C194.584 390.823 205.343 377.196 207.495 353.527C209.647 329.858 216.813 262.425 213.23 254.535C209.647 246.646 193.873 226.561 194.584 224.408C195.296 222.256 196.313 208.8 196.313 208.8Z" fill="#D39999"/>
<path d="M177.406 301.19C177.406 301.19 213.284 260.029 208.242 288.274C204.641 308.359 191.037 319.122 184.582 321.274C178.127 323.427 177.406 301.19 177.406 301.19Z" fill="#FDC2CC"/>
<path opacity="0.1" d="M279.574 387.356C276.144 384.735 269.67 380.655 263.71 381.556L264.755 377.223C264.755 377.223 273.938 374.35 277.179 377.223C278.367 378.268 279.187 382.384 279.574 387.356Z" fill="black"/>
<path opacity="0.1" d="M226.482 213.321C226.482 213.321 244.768 225.156 246.919 230.182C249.071 235.207 256.958 238.792 256.958 238.792C256.958 238.792 272.011 246.682 272.011 274.656L279.898 314.105L244.029 364.308C244.029 364.308 239.726 314.096 237.574 301.901C235.422 289.706 232.559 266.775 232.559 266.775C232.559 266.775 221.801 253.148 223.241 249.564C224.682 245.979 226.482 213.321 226.482 213.321Z" fill="black"/>
<path d="M226.419 213.105C226.419 213.105 245.488 223.724 247.631 228.741C249.773 233.757 257.678 237.315 257.678 237.315C257.678 237.315 272.731 245.205 272.731 273.179L280.618 312.628L282.05 387.941C282.05 387.941 269.139 375.746 259.821 381.484C250.503 387.221 244.768 362.831 244.768 362.831C244.768 362.831 240.464 312.619 238.312 300.424C236.161 288.229 233.298 265.298 233.298 265.298C233.298 265.298 222.539 251.725 223.979 248.123C225.42 244.52 226.419 213.105 226.419 213.105Z" fill="#D39999"/>
<path opacity="0.1" d="M233.991 157.633C232.777 156.089 231.374 154.703 229.814 153.508C227.347 151.455 224.619 149.311 221.558 149.492C219.826 149.722 218.163 150.318 216.678 151.239C209.055 155.256 201.454 159.315 193.873 163.416C191.073 164.929 188.183 166.532 186.229 169.252C184.276 171.972 183.484 175.467 182.934 178.889C182.475 181.207 182.365 183.581 182.61 185.932C182.833 188.237 183.952 190.362 185.725 191.85C187.769 193.336 190.569 193.345 192.28 195.29C193.27 196.416 193.702 197.992 194.404 199.361C195.107 200.73 196.322 202.063 197.708 201.82C199.095 201.577 199.932 200.109 200.13 198.623C200.218 197.116 200.131 195.605 199.869 194.119C199.599 191.417 199.941 188.553 201.508 186.545C202.588 185.176 204.137 184.347 205.181 182.942C207.684 179.556 206.54 173.935 209.286 170.756C210.084 169.925 211.087 169.32 212.194 169.004C213.302 168.688 214.473 168.671 215.589 168.955C217.812 169.423 219.847 170.63 221.891 171.657C224.652 173.05 227.544 174.166 230.525 174.989C233.028 175.674 235.927 177.313 236.782 173.98C238.087 169.09 236.827 161.605 233.991 157.633Z" fill="black"/>
<path d="M233.271 156.913C232.057 155.368 230.653 153.982 229.093 152.788C226.626 150.734 223.899 148.591 220.837 148.771C219.106 149.002 217.443 149.597 215.958 150.518C208.341 154.535 202.012 150.734 193.153 162.695C191.262 165.253 187.463 165.811 185.509 168.531C183.556 171.251 182.763 174.746 182.214 178.169C181.754 180.487 181.645 182.861 181.89 185.212C182.113 187.516 183.232 189.641 185.005 191.129C187.049 192.615 189.849 192.624 191.559 194.57C192.55 195.695 192.982 197.272 193.684 198.641C194.386 200.01 195.602 201.343 196.988 201.099C198.375 200.856 199.212 199.388 199.41 197.902C199.498 196.396 199.411 194.885 199.149 193.399C198.879 190.697 199.221 187.833 200.788 185.824C201.868 184.455 203.416 183.627 204.461 182.221C206.964 178.835 205.82 173.215 208.566 170.036C209.364 169.205 210.367 168.6 211.474 168.283C212.581 167.967 213.753 167.95 214.868 168.234C217.092 168.703 219.127 169.909 221.171 170.936C223.931 172.33 226.824 173.446 229.805 174.269C232.307 174.953 235.206 176.592 236.062 173.26C237.376 168.369 236.152 160.885 233.271 156.913Z" fill="#865A61"/>
<path d="M168.763 263.173C168.763 263.173 168.043 289.715 164.46 293.3C160.877 296.885 166.612 301.19 166.612 301.19L180.954 297.587C180.954 297.587 177.352 321.256 192.424 318.392C192.424 318.392 182.385 327.714 172.347 329.155C162.308 330.596 163.001 327.012 163.001 327.012L147.948 309.079L168.763 263.173Z" fill="#D39999"/>
<path opacity="0.1" d="M168.646 266.397C168.646 266.397 159.085 290.787 166.26 300.829L182.034 297.227C182.034 297.227 167.692 301.532 169.844 292.922C171.995 284.311 168.646 266.397 168.646 266.397Z" fill="black"/>
<path opacity="0.1" d="M163.388 326.651C163.388 326.651 184.186 328.083 189.921 323.778C182.373 329.561 173.454 333.285 164.037 334.586L163.388 326.651Z" fill="black"/>
<path opacity="0.1" d="M253.032 280.745C253.032 280.745 263.791 313.745 263.071 318.762C262.351 323.778 260.919 379.016 260.919 379.016L258.767 378.295L259.488 318.041L253.032 280.745Z" fill="black"/>
<path d="M705.997 374.062C705.997 374.062 721.753 405 708.914 421.923C696.076 438.846 710.085 484.969 710.085 484.969" stroke="#6C63FF" stroke-miterlimit="10"/>
<path d="M710.661 364.434C710.661 370.396 706.285 375.242 706.285 375.242C706.285 375.242 701.91 370.405 701.91 364.434C701.91 358.463 706.285 353.626 706.285 353.626C706.285 353.626 710.661 358.472 710.661 364.434Z" fill="#023E8A"/>
<path d="M714.163 374.062C714.163 374.062 698.408 405 711.246 421.923C724.085 438.846 710.076 484.969 710.076 484.969" stroke="#6C63FF" stroke-miterlimit="10"/>
<path d="M709.49 364.434C709.49 370.396 713.866 375.242 713.866 375.242C713.866 375.242 718.241 370.405 718.241 364.434C718.241 358.463 713.866 353.626 713.866 353.626C713.866 353.626 709.49 358.472 709.49 364.434Z" fill="#023E8A"/>
<path opacity="0.1" d="M709.49 364.434C709.49 370.396 713.866 375.242 713.866 375.242C713.866 375.242 718.241 370.405 718.241 364.434C718.241 358.463 713.866 353.626 713.866 353.626C713.866 353.626 709.49 358.472 709.49 364.434Z" fill="black"/>
<path d="M720.582 374.062C720.582 374.062 736.338 405 723.499 421.923C710.661 438.846 724.67 484.969 724.67 484.969" stroke="#6C63FF" stroke-miterlimit="10"/>
<path d="M725.246 364.434C725.246 370.396 720.87 375.242 720.87 375.242C720.87 375.242 716.495 370.405 716.495 364.434C716.495 358.463 720.87 353.626 720.87 353.626C720.87 353.626 725.246 358.472 725.246 364.434Z" fill="#023E8A"/>
<path d="M722.797 389.22C718.665 393.516 712.156 393.967 712.156 393.967C712.156 393.967 712.354 387.446 716.486 383.159C720.618 378.872 727.128 378.412 727.128 378.412C727.128 378.412 726.93 384.924 722.797 389.22Z" fill="#023E8A"/>
<path d="M723.202 410.566C719.07 414.862 712.561 415.312 712.561 415.312C712.561 415.312 712.759 408.792 716.891 404.504C721.023 400.217 727.497 399.749 727.497 399.749C727.497 399.749 727.335 406.261 723.202 410.566Z" fill="#023E8A"/>
<path d="M700.794 422.302C704.701 426.805 704.566 433.326 704.566 433.326C704.566 433.326 698.093 432.542 694.185 428.039C690.278 423.535 690.413 417.015 690.413 417.015C690.413 417.015 696.886 417.798 700.794 422.302Z" fill="#023E8A"/>
<path d="M704.422 376.791C709.392 380.087 711.003 386.41 711.003 386.41C711.003 386.41 704.548 387.383 699.587 384.122C694.626 380.862 693.006 374.503 693.006 374.503C693.006 374.503 699.452 373.495 704.422 376.791Z" fill="#023E8A"/>
<path opacity="0.1" d="M704.422 376.791C709.392 380.087 711.003 386.41 711.003 386.41C711.003 386.41 704.548 387.383 699.587 384.122C694.626 380.862 693.006 374.503 693.006 374.503C693.006 374.503 699.452 373.495 704.422 376.791Z" fill="black"/>
<path d="M728.748 374.062C728.748 374.062 712.993 405 725.831 421.923C738.67 438.846 724.661 484.969 724.661 484.969" stroke="#6C63FF" stroke-miterlimit="10"/>
<path d="M724.084 364.434C724.084 370.396 728.46 375.242 728.46 375.242C728.46 375.242 732.835 370.405 732.835 364.434C732.835 358.463 728.46 353.626 728.46 353.626C728.46 353.626 724.084 358.472 724.084 364.434Z" fill="#023E8A"/>
<path opacity="0.1" d="M724.084 364.434C724.084 370.396 728.46 375.242 728.46 375.242C728.46 375.242 732.835 370.405 732.835 364.434C732.835 358.463 728.46 353.626 728.46 353.626C728.46 353.626 724.084 358.472 724.084 364.434Z" fill="black"/>
<path d="M725.345 389.679C721.158 393.931 720.843 400.487 720.843 400.487C720.843 400.487 727.353 400.118 731.539 395.867C735.725 391.616 736.041 385.059 736.041 385.059C736.041 385.059 729.522 385.428 725.345 389.679Z" fill="#023E8A"/>
<path opacity="0.1" d="M725.345 389.679C721.158 393.931 720.843 400.487 720.843 400.487C720.843 400.487 727.353 400.118 731.539 395.867C735.725 391.616 736.041 385.059 736.041 385.059C736.041 385.059 729.522 385.428 725.345 389.679Z" fill="black"/>
<path d="M733.547 419.248C729.36 423.499 729.045 430.056 729.045 430.056C729.045 430.056 735.554 429.687 739.741 425.436C743.927 421.185 744.242 414.628 744.242 414.628C744.242 414.628 737.733 414.979 733.547 419.248Z" fill="#023E8A"/>
<path d="M721.474 412.736C721.474 412.736 730.954 397.785 744.27 397.425" stroke="#6C63FF" stroke-miterlimit="10"/>
<path d="M714.091 403.703C714.091 403.703 704.611 388.752 691.295 388.392" stroke="#6C63FF" stroke-miterlimit="10"/>
<path d="M712.858 425.048C712.858 425.048 722.338 410.097 735.654 409.737" stroke="#6C63FF" stroke-miterlimit="10"/>
<path d="M743.828 399.803C745.186 399.803 746.286 398.702 746.286 397.344C746.286 395.986 745.186 394.885 743.828 394.885C742.471 394.885 741.371 395.986 741.371 397.344C741.371 398.702 742.471 399.803 743.828 399.803Z" fill="#023E8A"/>
<path d="M691.52 390.976C692.878 390.976 693.978 389.876 693.978 388.518C693.978 387.16 692.878 386.059 691.52 386.059C690.163 386.059 689.062 387.16 689.062 388.518C689.062 389.876 690.163 390.976 691.52 390.976Z" fill="#023E8A"/>
<path d="M719.835 429.975C719.835 429.975 710.355 415.024 697.039 414.664" stroke="#6C63FF" stroke-miterlimit="10"/>
<path d="M697.264 417.249C698.622 417.249 699.722 416.148 699.722 414.79C699.722 413.432 698.622 412.331 697.264 412.331C695.907 412.331 694.806 413.432 694.806 414.79C694.806 416.148 695.907 417.249 697.264 417.249Z" fill="#023E8A"/>
<path d="M735.834 412.322C737.191 412.322 738.292 411.221 738.292 409.863C738.292 408.505 737.191 407.405 735.834 407.405C734.476 407.405 733.376 408.505 733.376 409.863C733.376 411.221 734.476 412.322 735.834 412.322Z" fill="#023E8A"/>
<path d="M772.251 466.983C772.251 466.983 749.401 462.408 743.306 456.31C737.211 450.213 709.788 439.576 706.745 447.169C703.702 454.761 665.609 480.727 691.484 485.294C717.359 489.86 752.426 491.391 760.043 488.338C767.66 485.285 772.251 466.983 772.251 466.983Z" fill="#A8A8A8"/>
<path opacity="0.2" d="M691.484 482.465C717.386 487.041 752.426 488.563 760.043 485.51C765.841 483.186 769.874 472 771.468 466.848L772.233 467.01C772.233 467.01 767.66 485.303 760.043 488.347C752.426 491.391 717.386 489.869 691.484 485.303C684.012 483.979 681.869 480.88 682.679 476.962C683.336 479.511 685.938 481.484 691.484 482.465Z" fill="black"/>
<path d="M102.023 543.233C102.023 543.233 109.568 553.14 98.5391 568.001C87.5103 582.862 78.4172 595.48 82.0994 604.784C82.0994 604.784 98.7372 577.107 112.278 576.72C125.819 576.332 116.914 559.877 102.023 543.233Z" fill="#023E8A"/>
<path opacity="0.1" d="M102.023 543.233C102.681 544.188 103.199 545.231 103.563 546.331C116.779 561.859 123.811 576.35 111.117 576.72C99.2864 577.062 85.0975 598.218 81.6943 603.568C81.8066 603.981 81.9419 604.387 82.0995 604.784C82.0995 604.784 98.7372 577.107 112.278 576.72C125.819 576.332 116.915 559.877 102.023 543.233Z" fill="black"/>
<path d="M116.05 555.806C116.05 559.283 115.663 562.111 115.15 562.111C114.637 562.111 114.25 559.292 114.25 555.806C114.25 552.321 114.736 554.005 115.213 554.005C115.69 554.005 116.05 552.339 116.05 555.806Z" fill="#FFD037"/>
<path d="M120.858 559.958C117.806 561.625 115.15 562.66 114.925 562.201C114.7 561.742 116.977 560.084 120.03 558.427C123.082 556.77 121.875 557.977 122.109 558.427C122.343 558.878 123.91 558.292 120.858 559.958Z" fill="#FFD037"/>
<path d="M62.1666 543.233C62.1666 543.233 54.622 553.14 65.6508 568.001C76.6796 582.862 85.7728 595.48 82.0905 604.775C82.0905 604.775 65.4527 577.098 51.912 576.711C38.3714 576.323 47.2754 559.877 62.1666 543.233Z" fill="#023E8A"/>
<path opacity="0.1" d="M62.1666 543.233C61.5092 544.188 60.9908 545.231 60.6271 546.331C47.4105 561.859 40.3791 576.35 53.0734 576.72C64.9035 577.062 79.0925 598.218 82.4956 603.568C82.3833 603.981 82.2481 604.387 82.0905 604.784C82.0905 604.784 65.4527 577.107 51.912 576.72C38.3714 576.332 47.2754 559.877 62.1666 543.233Z" fill="black"/>
<path d="M48.1396 555.806C48.1396 559.283 48.5268 562.111 49.04 562.111C49.5531 562.111 49.9403 559.292 49.9403 555.806C49.9403 552.321 49.4541 554.005 48.9769 554.005C48.4998 554.005 48.1396 552.339 48.1396 555.806Z" fill="#FFD037"/>
<path d="M43.332 559.958C46.384 561.625 49.0399 562.66 49.265 562.201C49.4901 561.742 47.2123 560.084 44.1602 558.427C41.1082 556.77 42.3146 557.977 42.0805 558.427C41.8465 558.878 40.2799 558.292 43.332 559.958Z" fill="#FFD037"/>
<path d="M50.5435 603.478C50.5435 603.478 71.6378 602.83 77.994 598.299C84.3502 593.769 110.405 588.392 112.017 595.597C113.628 602.803 143.717 631.723 119.903 631.912C96.0902 632.101 64.5703 628.201 58.2231 624.337C51.8759 620.474 50.5435 603.478 50.5435 603.478Z" fill="#A8A8A8"/>
<path opacity="0.2" d="M120.336 629.417C96.5224 629.606 65.0025 625.706 58.6553 621.843C53.8206 618.897 51.894 608.333 51.2547 603.46H50.5525C50.5525 603.46 51.885 620.483 58.2321 624.346C64.5793 628.21 96.0992 632.119 119.912 631.921C126.791 631.867 129.159 629.417 129.033 625.797C128.069 628.012 125.449 629.372 120.336 629.417Z" fill="black"/>
</g>
<defs>
<linearGradient id="paint0_linear_92_446" x1="456.179" y1="537.649" x2="456.179" y2="218.293" gradientUnits="userSpaceOnUse">
<stop stop-color="#808080" stop-opacity="0.25"/>
<stop offset="0.54" stop-color="#808080" stop-opacity="0.12"/>
<stop offset="1" stop-color="#808080" stop-opacity="0.1"/>
</linearGradient>
<linearGradient id="paint1_linear_92_446" x1="524.88" y1="456.669" x2="586.574" y2="227.632" gradientUnits="userSpaceOnUse">
<stop stop-color="#808080" stop-opacity="0.25"/>
<stop offset="0.54" stop-color="#808080" stop-opacity="0.12"/>
<stop offset="1" stop-color="#808080" stop-opacity="0.1"/>
</linearGradient>
<linearGradient id="paint2_linear_92_446" x1="209.503" y1="642.918" x2="209.503" y2="139.44" gradientUnits="userSpaceOnUse">
<stop stop-color="#808080" stop-opacity="0.25"/>
<stop offset="0.54" stop-color="#808080" stop-opacity="0.12"/>
<stop offset="1" stop-color="#808080" stop-opacity="0.1"/>
</linearGradient>
<clipPath id="clip0_92_446">
<rect width="922" height="707" fill="white"/>
</clipPath>
</defs>
</svg>
